<svg version="1.1" id="Layer_1" xmlns="http://www.w3.org/2000/svg" xmlns:xlink="http://www.w3.org/1999/xlink" x="0px" y="0px"
	 width="100%" viewBox="0 0 1094 1142" enable-background="new 0 0 1094 1142" xml:space="preserve">
<path fill="#FFFFFF" opacity="1.000000" stroke="none" 
	d="
M603.000000,1143.000000 
	C403.522186,1143.000000 204.544388,1142.989014 5.566620,1143.086182 
	C1.940642,1143.087891 0.895568,1142.470215 0.896713,1138.567627 
	C1.007527,760.943054 1.009113,383.318512 0.882499,5.693974 
	C0.881100,1.521722 1.867231,0.896074 5.805038,0.897279 
	C367.264709,1.007872 728.724365,1.007708 1090.184082,0.898834 
	C1094.099121,0.897654 1095.120361,1.487488 1095.118896,5.683044 
	C1094.990845,383.140930 1094.989990,760.598816 1095.122803,1138.056763 
	C1095.124390,1142.438232 1094.025513,1143.103638 1089.944336,1143.100708 
	C927.796326,1142.982422 765.648132,1143.000000 603.000000,1143.000000 
z"/>
<path fill="#D1C4E9" opacity="1.000000" stroke="none" 
	d="
M636.470825,640.369263 
	C622.048462,642.054932 608.148193,644.054932 594.302795,646.666016 
	C576.615967,650.001648 561.854004,659.082825 547.505432,669.090576 
	C534.568481,678.113831 522.321289,688.053284 510.281982,698.241638 
	C509.559113,698.853394 508.909851,699.940918 507.788330,699.418579 
	C506.668518,698.897095 507.130188,697.677063 507.056702,696.736816 
	C506.992004,695.908936 507.042267,695.072083 507.042267,694.239197 
	C507.042389,612.449890 507.064392,530.660645 506.972931,448.871460 
	C506.968719,445.099640 507.956329,442.363007 510.686157,439.662628 
	C523.344666,427.140839 536.577148,415.322968 550.867126,404.668945 
	C563.816223,395.014526 578.286011,389.309814 594.201904,387.142792 
	C614.243713,384.413971 634.283752,381.779114 654.592468,381.831696 
	C659.198792,381.843628 660.044800,383.313690 660.038879,387.535583 
	C659.923096,469.324707 659.914368,551.114075 660.047791,632.903076 
	C660.055725,637.773193 658.544617,639.227478 653.776978,639.128723 
	C648.164185,639.012512 642.532227,639.822693 636.470825,640.369263 
z"/>
<path fill="#D1C4E9" opacity="1.000000" stroke="none" 
	d="
M472.760895,431.237061 
	C483.049164,438.524292 485.424683,447.966156 485.329468,460.180878 
	C484.725403,537.674500 485.022888,615.175110 485.023132,692.673401 
	C485.023132,693.673401 485.100250,694.680908 485.003326,695.671448 
	C484.879547,696.935913 485.678131,698.701477 484.323975,699.345276 
	C482.607422,700.161438 481.857788,698.147095 480.777924,697.267639 
	C461.458130,681.532532 442.519958,665.269287 420.028076,653.981934 
	C408.575775,648.234802 396.124786,646.129883 383.688812,644.050354 
	C368.151154,641.452271 352.487152,639.876831 336.760468,639.034790 
	C334.047882,638.889526 332.656219,638.200806 332.966675,635.315063 
	C333.055267,634.491394 332.977661,633.649902 332.977661,632.816589 
	C332.977539,551.318359 332.977081,469.820160 332.978394,388.321930 
	C332.978516,381.945038 332.984497,381.915222 339.548340,381.967377 
	C363.667114,382.159119 387.484375,385.034119 411.105835,389.833710 
	C424.940735,392.644836 436.146851,400.400818 446.957611,408.741394 
	C455.895752,415.637268 464.483795,423.008331 472.760895,431.237061 
z"/>
<path fill="#250C58" opacity="1.000000" stroke="none" 
	d="
M762.183228,741.191101 
	C743.621582,718.261780 739.403137,693.316040 751.045959,666.342896 
	C754.446228,658.465393 759.591736,651.349243 763.805908,643.810730 
	C765.178101,641.356079 766.103943,638.654724 767.283630,636.089111 
	C771.246338,627.470764 772.977966,618.892822 767.025940,610.369263 
	C764.759827,607.124023 766.499878,605.596802 769.396973,603.956787 
	C797.185120,588.227051 824.741455,572.098389 851.954102,555.388916 
	C853.468872,554.458679 855.307068,553.891663 856.593750,551.577332 
	C851.083374,551.130798 845.886658,550.650024 840.681152,550.299866 
	C828.558228,549.484436 816.422424,548.840820 804.311218,547.883240 
	C800.963928,547.618530 799.620117,548.155396 799.724915,551.922729 
	C799.842407,556.145203 800.624207,561.248352 794.164734,562.151733 
	C787.995789,563.014343 782.598267,559.989624 776.883301,558.646179 
	C775.458435,558.311218 776.496277,556.296448 776.648926,555.043884 
	C777.675781,546.616699 778.931030,538.189697 778.738159,529.686340 
	C778.645996,525.623657 780.386169,520.974976 775.310608,517.947327 
	C774.040039,517.189453 774.283875,513.922729 773.796265,511.817230 
	C771.883179,503.557373 770.096802,495.264709 767.994141,487.053192 
	C765.893311,478.849152 762.061157,471.265564 758.588318,463.135010 
	C761.508789,462.635437 764.067932,462.197662 766.925354,461.708832 
	C761.822083,451.545807 754.741516,442.957855 747.640747,434.444672 
	C745.138977,431.445251 745.592041,430.318054 748.865356,428.975098 
	C751.312195,427.971222 753.558777,426.485046 755.914368,425.251526 
	C758.563904,423.864075 761.127502,421.758026 763.927002,421.359589 
	C767.023560,420.918854 767.808899,424.896942 769.925049,426.616119 
	C771.529968,427.919983 772.664490,427.989838 774.263245,426.774353 
	C786.165710,417.725311 798.107910,408.728424 809.662476,398.665802 
	C802.715149,400.158783 795.754517,401.592712 788.823242,403.156799 
	C773.576782,406.597229 758.302368,409.930298 743.132629,413.684174 
	C738.342712,414.869446 734.843994,414.416656 731.183716,410.780151 
	C725.607178,405.239899 725.367310,405.520355 730.065002,399.454010 
	C743.727783,381.811005 757.378723,364.158844 771.004211,346.487030 
	C771.843140,345.398956 773.265259,344.551331 772.957153,342.178802 
	C768.520081,344.527283 764.337952,346.726074 760.169373,348.950317 
	C751.519409,353.565704 742.919128,358.277191 734.203369,362.764587 
	C731.781738,364.011383 731.131287,364.826294 732.893066,367.387604 
	C737.980835,374.784180 736.751038,378.279755 728.287292,381.564880 
	C724.748474,382.938416 720.720032,385.795685 717.697388,385.000610 
	C714.519836,384.164764 713.670898,378.940887 711.866150,375.615356 
	C706.264526,365.293396 698.934448,356.266876 690.883911,347.230194 
	C697.152771,344.075500 703.267273,341.138306 709.238220,337.933777 
	C712.147949,336.372131 712.817200,338.914276 713.772705,340.236511 
	C716.400391,343.872742 719.223450,344.319336 723.188049,342.293915 
	C746.275024,330.499573 769.412537,318.802765 792.603271,307.213776 
	C797.505127,304.764252 794.897827,301.599457 793.594604,298.925232 
	C791.879150,295.404968 789.880737,292.279755 792.936157,288.488312 
	C794.266541,286.837341 806.274780,281.181335 807.984131,281.960541 
	C808.772461,282.319916 809.378967,283.306549 809.832520,284.137299 
	C815.811096,295.088348 821.596619,306.171112 830.036987,315.520477 
	C832.312256,318.040771 829.837402,319.120667 828.760315,320.407867 
	C813.472778,338.676025 798.407349,357.122559 783.785583,375.929199 
	C782.380981,377.735840 781.017700,379.574554 778.756592,382.557556 
	C789.730774,380.080811 799.392944,378.036133 808.985291,375.703979 
	C824.004211,372.052460 839.001160,368.303070 853.950195,364.377197 
	C857.823364,363.360077 860.643127,364.323700 862.445068,367.596924 
	C867.764038,377.258636 874.347595,386.038239 880.893250,394.859619 
	C882.579468,397.132080 880.735901,402.003326 877.569397,403.959259 
	C876.445740,404.653320 875.184692,405.127014 873.979675,405.687042 
	C866.162537,409.319824 866.169861,409.311157 860.407654,403.113922 
	C858.334351,400.884125 856.530762,398.692169 852.953430,401.372498 
	C833.368652,416.046478 813.650146,430.541809 793.995728,445.123077 
	C792.663513,446.111481 791.558167,447.409027 790.213074,448.376099 
	C787.156677,450.573578 787.105591,452.565521 789.647583,455.482117 
	C792.808899,459.109283 791.750671,463.383514 787.739624,466.251617 
	C786.825867,466.905060 784.501282,466.451660 785.248474,468.526733 
	C785.849548,470.196075 786.879578,471.905945 789.035522,472.093323 
	C791.045349,472.267975 792.982605,471.864960 794.949707,471.388977 
	C819.188965,465.523468 843.427490,459.652771 867.711426,453.976837 
	C871.239868,453.152130 871.644104,451.809387 870.654968,448.606537 
	C867.964111,439.893463 870.039795,437.077789 879.262695,436.224762 
	C890.710754,435.165955 890.618103,435.185333 892.959717,446.380432 
	C894.491089,453.701782 896.029663,461.047638 898.131897,468.216248 
	C900.229980,475.370483 903.034729,482.317444 905.620056,489.610138 
	C899.046448,490.635895 892.635498,491.474243 886.300232,492.702606 
	C883.673584,493.211884 883.283630,491.834412 882.538269,490.015808 
	C878.423218,479.975433 880.422302,480.986084 869.857849,483.032227 
	C846.021179,487.648926 822.251831,492.587128 798.582520,498.012909 
	C794.640991,498.916412 793.577393,500.138367 794.859802,504.300293 
	C796.605042,509.964233 800.943481,514.571777 801.054504,520.910217 
	C801.104065,523.739563 804.100342,523.605896 806.159058,523.787659 
	C826.223328,525.559326 846.293945,527.259155 866.364197,528.962708 
	C871.505310,529.399109 876.722656,529.381531 881.775452,530.291504 
	C886.833008,531.202332 888.265442,528.730896 888.970520,524.569763 
	C889.554199,521.125000 889.333923,517.602112 893.703735,515.561890 
	C897.941895,513.583008 901.127502,515.727478 904.620361,516.612000 
	C911.912842,518.458801 911.886047,518.634033 910.642090,525.881165 
	C909.199280,534.286377 908.469971,542.762451 909.203491,551.251770 
	C909.480408,554.456482 908.500061,555.895630 905.810120,557.411133 
	C881.176514,571.290222 856.841492,585.682007 832.785217,600.542053 
	C831.962524,601.050232 831.182129,601.627136 829.485291,602.782776 
	C833.392212,603.073242 836.410278,603.336426 839.433350,603.515747 
	C852.724182,604.304260 866.023193,604.973206 879.303345,605.911011 
	C882.480896,606.135437 883.535034,605.549683 883.572205,602.084412 
	C883.657776,594.110901 887.112122,591.780151 895.028992,593.936401 
	C898.980469,595.012573 904.600952,594.505920 906.374146,597.733154 
	C907.929321,600.563599 905.863586,605.397400 905.361633,609.341797 
	C904.009277,619.968994 904.723877,630.612915 905.063538,641.254883 
	C905.105347,642.563721 905.069275,643.875061 905.069275,645.679138 
	C898.468262,644.615051 892.168518,643.538391 885.846802,642.612122 
	C883.485962,642.266174 883.133667,640.911804 882.961853,638.840637 
	C882.273987,630.549866 882.209961,630.432373 874.043945,629.739746 
	C845.859497,627.348999 817.667053,625.052429 789.060486,623.008362 
	C793.794067,625.398132 793.064453,628.954224 791.728455,632.637573 
	C789.961182,637.509644 791.310974,640.631470 796.223877,642.952515 
	C819.207397,653.810974 842.087952,664.888733 864.937073,676.028198 
	C867.790955,677.419617 868.809937,676.856873 869.928528,674.023071 
	C872.763977,666.839172 876.771423,665.791504 883.184082,670.258789 
	C886.452942,672.535950 891.209473,674.294861 892.452576,677.418640 
	C893.759155,680.701599 889.493530,684.291260 887.727112,687.763733 
	C881.774292,699.466431 876.516052,711.480774 871.087646,723.425110 
	C862.778809,741.707520 850.214172,755.795532 830.618103,762.370422 
	C814.395874,767.813232 798.821655,765.559265 783.811462,757.871155 
	C782.248901,757.070923 780.899353,755.756531 778.403381,755.674500 
	C779.323547,758.520142 781.409058,760.192139 782.944946,762.154602 
	C802.100159,786.628418 802.959167,820.167175 785.011536,844.819580 
	C765.380127,871.784851 730.748352,877.556763 703.356689,858.216919 
	C678.844543,840.910278 665.816711,810.860107 672.954102,780.838379 
	C679.435974,753.573975 705.412964,732.310120 732.518127,733.182556 
	C742.520569,733.504395 751.746033,736.669495 760.626770,741.939575 
	C761.106995,742.155273 761.272522,742.227661 761.687134,742.356323 
	C761.936340,742.412598 762.422302,742.478394 762.408936,742.218750 
	C762.363953,741.783325 762.332336,741.607544 762.183228,741.191101 
z"/>
<path fill="#260C58" opacity="1.000000" stroke="none" 
	d="
M541.780762,251.272049 
	C543.166687,246.856094 544.358093,242.701401 545.437866,238.517899 
	C545.901672,236.720657 546.483765,235.591660 548.754150,235.958374 
	C554.337891,236.860245 559.952881,237.578247 565.566345,238.282013 
	C568.006165,238.587921 567.829590,239.758072 567.352356,241.730087 
	C565.905701,247.707108 564.559692,253.721878 563.523865,259.781677 
	C562.143188,267.859589 563.852051,270.425446 571.754028,273.132965 
	C577.145325,274.980225 582.582520,276.369781 588.359680,275.100006 
	C596.757690,273.254211 600.146606,265.721588 595.684143,258.425659 
	C591.619690,251.780533 585.413391,247.123672 579.841675,241.894012 
	C573.895020,236.312515 567.919250,230.809570 562.912964,224.280914 
	C547.191040,203.778046 557.959534,182.218018 573.872803,173.075928 
	C588.966858,164.404480 604.742920,165.235168 620.652344,170.523712 
	C627.772156,172.890427 634.572815,175.996750 640.862366,180.137848 
	C645.183105,182.982620 646.327148,186.517670 644.261475,191.153763 
	C639.931213,200.872726 635.853760,210.694931 632.699402,220.858765 
	C631.820190,223.691681 630.467712,224.514816 627.685730,223.912491 
	C624.926392,223.315109 622.087219,223.097931 619.306213,222.587769 
	C613.145020,221.457520 610.497742,216.602951 612.867310,210.927078 
	C613.122986,210.314743 613.401855,209.680969 613.486084,209.033218 
	C614.130188,204.079010 618.786133,198.859818 613.368896,194.234711 
	C607.376648,189.118591 593.626404,188.004013 588.309326,191.708710 
	C584.127075,194.622711 583.323669,199.701096 586.597961,204.487122 
	C590.188599,209.735580 594.834351,214.058777 599.452087,218.396866 
	C606.239319,224.773010 613.536926,230.600174 619.368042,237.990860 
	C633.833618,256.325378 629.493835,279.582367 609.118164,291.149109 
	C592.255737,300.721497 574.892029,298.877350 557.552002,292.637512 
	C551.284668,290.382233 545.339050,287.308319 540.145264,283.044678 
	C538.375305,281.591797 537.118774,281.191742 535.934937,283.521881 
	C534.519104,286.308746 532.098816,286.522186 529.238525,286.611389 
	C505.956879,287.337708 482.611755,286.913330 459.452606,290.045990 
	C454.196960,290.756866 449.078400,291.717010 444.271057,294.478729 
	C439.045013,297.480988 433.289917,296.467194 427.806213,294.580963 
	C421.583435,292.440521 416.234802,288.782928 411.171265,284.666107 
	C403.416870,278.361511 395.694397,272.016388 387.860565,265.811920 
	C385.946472,264.295929 384.156036,261.128632 381.135468,263.279999 
	C378.091187,265.448273 381.206635,267.738098 381.880005,269.754120 
	C383.772217,275.419128 386.162323,280.915680 388.236084,286.523010 
	C389.307800,289.421021 390.749023,290.127045 393.832153,288.927826 
	C401.506409,285.942749 404.715698,288.073914 406.051849,296.524933 
	C406.619751,300.116730 408.677795,304.605774 407.253510,307.057648 
	C405.858917,309.458435 400.880554,309.743317 397.504333,311.033234 
	C384.940002,315.833466 372.226135,320.310730 360.550476,327.127533 
	C358.165131,328.520203 357.437531,327.960541 357.015961,325.443573 
	C356.164307,320.358795 355.211731,315.284515 354.080597,310.255432 
	C353.397614,307.218811 354.200317,305.524994 357.069183,303.974915 
	C364.663483,299.871552 364.626709,299.680664 361.474121,291.850525 
	C352.355072,269.201630 343.125549,246.596924 334.110229,223.906967 
	C332.821106,220.662521 331.957947,219.349075 328.265289,221.388229 
	C322.354919,224.652039 318.353699,222.583099 316.746033,215.999832 
	C315.724579,211.817108 313.222809,206.956985 314.480988,203.541031 
	C315.808533,199.936905 321.848816,200.265640 325.766083,198.722794 
	C336.127991,194.641754 346.415222,190.409348 356.547699,185.776489 
	C367.681976,180.685577 379.252777,177.893845 391.397339,181.657043 
	C408.832855,187.059723 418.724060,205.409805 414.576996,224.244904 
	C413.132141,230.806900 410.609467,236.943527 406.583008,242.346802 
	C404.949615,244.538696 404.960938,245.700790 407.417297,247.376297 
	C415.529144,252.909363 423.461853,258.707642 431.406616,264.482147 
	C437.270386,268.744141 443.139526,269.593903 450.579590,268.054382 
	C457.046906,266.716095 456.783234,263.832825 456.510620,259.149719 
	C455.079102,234.560913 453.688965,209.968002 452.597778,185.362625 
	C452.402710,180.963989 450.565521,180.668472 447.133545,181.144104 
	C441.502197,181.924530 438.076721,178.458115 438.636963,172.707016 
	C439.056580,168.399216 438.186005,163.048248 440.430115,160.086395 
	C442.808289,156.947617 448.447937,158.991241 452.645233,158.773163 
	C474.083344,157.659256 495.551331,157.002960 516.855652,154.079163 
	C519.490295,153.717575 522.113892,153.272675 524.737610,152.836624 
	C530.538330,151.872604 534.662231,155.725906 533.790955,161.760712 
	C532.313110,171.996262 531.490051,182.263077 531.560669,192.595901 
	C531.583496,195.922424 530.513855,197.680267 526.843994,197.921692 
	C522.373474,198.215775 517.900208,198.910461 513.507874,199.817902 
	C509.686890,200.607300 508.596832,199.434189 508.902435,195.621887 
	C509.220428,191.655289 508.841736,187.634460 508.802124,183.637009 
	C508.776581,181.059311 507.730896,179.855865 504.945618,179.682983 
	C497.932861,179.247711 490.970551,180.069168 483.983643,180.141693 
	C481.931091,180.163010 481.515472,181.355621 481.541656,183.066605 
	C481.661224,190.892975 481.836548,198.719894 481.819092,206.546234 
	C481.812683,209.427887 483.544128,209.150375 485.437256,209.137680 
	C495.476685,209.070297 505.315948,207.366821 515.143921,205.567230 
	C519.548706,204.760681 524.331299,209.025024 523.944458,213.455948 
	C523.915466,213.787888 523.897095,214.123001 523.835999,214.449570 
	C522.857056,219.681641 523.468872,226.320190 520.443787,229.751877 
	C517.355835,233.254944 510.510162,230.879944 505.317474,231.188126 
	C499.006287,231.562683 492.691101,231.868774 486.378906,232.227203 
	C484.002960,232.362122 482.315735,232.948746 482.494537,236.039017 
	C482.984680,244.509064 483.324982,252.992004 483.491516,261.474426 
	C483.555817,264.747955 484.812775,265.723114 487.984070,265.521210 
	C494.797363,265.087433 501.632172,264.882996 508.359375,263.647125 
	C515.280945,262.375549 516.977966,260.505524 518.050476,253.598160 
	C518.127014,253.105026 518.104370,252.579285 518.269958,252.119919 
	C519.440063,248.873886 517.322327,243.731781 520.168640,242.410492 
	C524.843445,240.240402 530.456055,239.886337 535.732483,239.299072 
	C538.529236,238.987808 541.379456,245.427444 540.912292,250.639679 
	C541.116455,252.414490 540.750732,253.758636 540.443787,255.108795 
	C540.860718,253.923035 540.865601,252.623459 541.780762,251.272049 
z"/>
<path fill="#B59FDC" opacity="1.000000" stroke="none" 
	d="
M536.387817,710.367432 
	C530.945374,713.285889 525.827271,716.027161 520.709167,718.768372 
	C520.342285,718.517090 519.975403,718.265869 519.608521,718.014587 
	C523.293335,709.467529 522.280029,699.089478 531.632019,692.748840 
	C548.894043,681.045044 566.583313,670.048584 585.792725,661.926453 
	C598.372620,656.607422 612.008057,654.686279 625.533081,653.058044 
	C638.718140,651.470825 651.957642,650.326965 665.183044,649.093262 
	C667.258423,648.899658 668.238037,648.179810 668.121216,646.058105 
	C668.048035,644.729065 668.116577,643.392395 668.116577,642.059143 
	C668.117004,564.062256 668.116516,486.065399 668.117676,408.068542 
	C668.117737,401.170044 668.125122,401.244171 674.839172,401.010498 
	C678.819702,400.871948 682.805481,400.583923 686.761475,400.126434 
	C690.467834,399.697876 692.219543,400.570496 691.990845,404.852661 
	C691.626770,411.666290 691.893738,418.513580 691.893738,425.346649 
	C691.893799,500.843597 691.839050,576.340698 692.019531,651.837219 
	C692.031250,656.750610 690.533813,658.138367 685.881775,659.132935 
	C651.962952,666.384216 617.494934,671.864441 585.518738,686.119507 
	C568.963135,693.499878 552.963135,702.126587 536.387817,710.367432 
z"/>
<path fill="#B39DDB" opacity="1.000000" stroke="none" 
	d="
M380.730286,655.169800 
	C412.801392,660.176331 438.265594,677.897644 463.899475,695.267273 
	C465.008423,696.018799 466.133179,696.796143 466.578613,698.134705 
	C468.258362,703.182495 469.930084,708.233398 471.537140,713.304688 
	C472.070526,714.987671 472.400146,716.735352 473.103149,719.592407 
	C464.174469,714.876160 456.073456,710.818542 448.180756,706.389587 
	C415.179108,687.870972 380.455048,674.086304 343.168182,666.865479 
	C330.310028,664.375427 317.625671,660.945251 304.696564,658.734985 
	C301.232880,658.142944 300.887848,656.072266 300.893768,653.067505 
	C300.976349,611.088318 300.947510,569.108887 300.946899,527.129517 
	C300.946289,486.482849 300.971191,445.836121 300.903687,405.189545 
	C300.897888,401.695648 300.931641,399.654572 305.682922,400.596191 
	C310.350189,401.521118 315.310059,401.146149 320.134644,401.037598 
	C323.240295,400.967743 324.373840,402.181854 324.045593,405.157501 
	C323.918518,406.309540 324.026062,407.487396 324.026062,408.653503 
	C324.026123,486.948334 324.047089,565.243164 323.961212,643.537964 
	C323.957153,647.260132 324.371399,648.915649 328.883057,649.266846 
	C346.081543,650.605896 363.291656,652.063416 380.730286,655.169800 
z"/>
<path fill="#755CA8" opacity="1.000000" stroke="none" 
	d="
M545.370972,725.119690 
	C551.060486,715.877563 558.113098,708.051697 568.372559,703.227539 
	C593.073547,691.612793 617.712646,679.897095 644.730225,674.543213 
	C662.231079,671.075073 680.000916,669.523193 697.764648,668.340698 
	C702.640381,668.016174 703.239380,666.349426 703.233887,662.194763 
	C703.131775,584.374573 703.158630,506.554108 703.159546,428.733704 
	C703.159607,422.261597 703.163330,422.261627 709.623291,422.129761 
	C720.509155,421.907562 720.509033,421.907562 720.509216,432.767334 
	C720.510376,512.920654 720.457642,593.074158 720.640381,673.227051 
	C720.651917,678.311462 719.201416,679.577698 714.316650,679.886841 
	C689.392944,681.464233 664.217590,682.943604 640.610657,691.507324 
	C617.802368,699.781311 595.068237,708.299438 572.201599,716.434998 
	C563.438904,719.552612 554.547913,722.309753 545.370972,725.119690 
z"/>
<path fill="#260C58" opacity="1.000000" stroke="none" 
	d="
M281.598816,854.773010 
	C288.345032,836.881592 301.557495,828.334473 319.714630,826.931824 
	C323.868378,826.611023 325.363464,825.517822 324.902283,821.149719 
	C323.732483,810.070251 324.695618,798.858398 323.133850,787.786438 
	C322.517426,783.416748 320.403961,780.035461 316.045471,777.698486 
	C312.580109,788.032593 307.369202,797.149048 299.951935,805.010925 
	C276.167542,830.221008 239.151871,837.415649 210.074554,819.353027 
	C179.266937,800.215393 171.799805,761.700195 193.803131,732.778198 
	C212.522324,708.172974 244.811234,696.837097 272.816589,706.107971 
	C297.639130,714.325256 313.525330,731.074951 317.617981,757.685486 
	C317.712982,758.303345 317.933289,758.901978 318.267548,760.156738 
	C320.251373,756.955139 322.388367,757.114990 325.065552,758.631042 
	C327.791870,760.174866 330.750305,761.443054 333.754120,762.339294 
	C346.900543,766.261658 351.190002,776.418274 351.917358,788.630920 
	C352.669556,801.261414 351.844788,813.919800 351.330536,826.559387 
	C351.262909,828.221375 351.218323,829.885437 351.215027,831.548645 
	C351.211243,833.459656 352.811920,834.041504 354.133331,834.552185 
	C355.642365,835.135254 356.030243,833.494873 356.560974,832.632263 
	C360.217102,826.690125 363.668243,820.619812 367.407959,814.732117 
	C369.222931,811.874634 368.881500,810.256897 365.895782,808.452332 
	C359.437134,804.548584 359.009155,800.423340 364.144073,794.761414 
	C366.713318,791.928406 369.020905,787.700500 372.172302,786.875916 
	C375.374603,786.038025 378.394135,790.372253 381.570404,792.315063 
	C393.733246,799.755066 405.745300,807.448547 419.511688,813.018921 
	C414.641113,818.553467 410.117676,823.590820 405.722504,828.737732 
	C403.923828,830.844055 402.398010,829.206360 400.860352,828.621460 
	C391.652954,825.119202 393.153778,824.109680 387.905151,832.910034 
	C375.475525,853.750671 363.264557,874.722046 350.754333,895.513733 
	C348.867371,898.649902 348.679260,899.980164 352.336945,901.643799 
	C358.707397,904.541260 359.394531,908.898865 354.832489,914.504333 
	C352.208862,917.728027 349.994232,922.518982 346.640869,923.576111 
	C343.108429,924.689575 339.807251,919.877197 336.369141,917.743164 
	C326.476593,911.602783 316.291016,906.002625 306.113800,900.364868 
	C294.611481,893.993042 285.255890,885.603455 281.395599,872.372803 
	C279.707886,866.588318 279.878113,860.887207 281.598816,854.773010 
z"/>
<path fill="#745AA7" opacity="1.000000" stroke="none" 
	d="
M314.941162,670.021484 
	C333.408966,672.153137 351.563782,673.842896 368.747681,680.011292 
	C389.559479,687.481995 410.154907,695.530090 429.575623,706.323547 
	C437.674347,710.824585 442.095428,718.484131 447.433807,725.851990 
	C438.437805,722.792358 429.390503,719.874634 420.455872,716.645142 
	C398.412933,708.677307 376.437866,700.521912 354.404358,692.527832 
	C337.379822,686.351013 319.560181,684.020752 301.696838,682.047119 
	C293.428894,681.133667 285.127686,680.396790 276.821503,680.009399 
	C272.967316,679.829712 271.900513,678.598877 271.908112,674.721497 
	C272.033966,610.575500 271.997650,546.429260 271.997681,482.283020 
	C271.997681,463.622284 272.078430,444.960907 271.924194,426.301453 
	C271.896118,422.902344 272.602020,421.788116 276.281128,421.887878 
	C289.109680,422.235626 289.114105,422.069641 289.114166,434.831635 
	C289.114502,510.640808 289.148224,586.450073 289.027710,662.259033 
	C289.020905,666.556946 289.791687,668.323486 294.594696,668.320801 
	C301.225433,668.317139 307.856720,669.386536 314.941162,670.021484 
z"/>
<path fill="#260C58" opacity="1.000000" stroke="none" 
	d="
M506.145142,942.224670 
	C505.222534,936.969666 507.697388,935.311829 512.058533,934.946777 
	C516.385986,934.584351 519.256714,933.301331 518.957031,927.600098 
	C517.917908,907.828857 517.511353,888.024841 516.798889,868.235657 
	C516.589478,862.420471 516.052856,856.616516 515.879333,850.801025 
	C515.780090,847.476440 514.815552,845.784973 511.129883,846.763123 
	C509.377441,847.228149 507.496857,847.186401 505.692352,847.483643 
	C500.515503,848.336609 496.914734,845.372742 496.941742,840.042664 
	C496.951782,838.061340 497.352844,836.075867 497.647736,834.103027 
	C499.069641,824.590515 499.078583,824.605713 508.520996,824.462646 
	C523.527954,824.235168 538.218567,820.885132 552.992004,819.503174 
	C570.467712,817.868408 586.278992,811.737671 602.721313,807.222046 
	C610.092102,805.197876 617.105713,802.041748 623.698425,798.132446 
	C626.990173,796.180481 629.007385,795.199219 629.349548,800.560852 
	C629.643921,805.171814 630.836914,809.743591 631.850037,814.284119 
	C632.521912,817.295349 631.935669,819.035461 628.833557,820.457947 
	C622.135132,823.529480 621.993530,824.129700 624.194214,831.186951 
	C631.758057,855.443176 639.454895,879.658264 646.921936,903.944031 
	C647.828247,906.891724 648.840149,906.995056 651.394592,906.002502 
	C659.010315,903.043091 662.123047,904.909363 663.471252,913.082458 
	C664.118774,917.008057 666.007446,921.747925 664.527527,924.723083 
	C663.002014,927.789917 657.485352,927.277222 653.722595,928.326904 
	C640.441589,932.031555 627.436768,936.412964 615.040955,943.786438 
	C613.376953,936.491577 611.828064,929.713745 610.285950,922.934387 
	C609.696472,920.343140 612.029968,920.515442 613.330078,919.891602 
	C619.882996,916.747131 619.876221,916.790039 618.169006,909.523499 
	C612.618225,885.897766 605.703918,862.652954 598.590881,839.464844 
	C596.470215,832.551575 596.385498,832.542725 589.233215,834.868896 
	C586.073547,835.896545 582.974487,837.109131 579.831543,838.190125 
	C573.916565,840.224670 571.571411,844.509399 572.022400,850.539185 
	C572.320007,854.518799 572.425171,858.539978 573.115295,862.454590 
	C573.698669,865.763245 572.587524,867.295288 569.522461,868.239685 
	C567.002502,869.016113 564.652100,870.339539 562.220703,871.407288 
	C556.386841,873.969421 551.799500,871.171997 550.956482,864.707947 
	C550.032104,857.620300 548.935242,850.555176 547.895386,843.354187 
	C543.654541,843.599182 542.420349,846.166016 542.647461,849.664673 
	C544.350098,875.896118 546.137268,902.122070 547.815857,928.355042 
	C547.950989,930.466370 548.506531,931.415344 550.724365,930.951416 
	C552.024353,930.679504 553.362061,930.592407 554.679077,930.396423 
	C559.515686,929.676636 562.501160,931.845520 563.218872,936.643005 
	C563.291443,937.127869 563.185791,937.637329 563.185303,938.135376 
	C563.171387,952.563110 563.173462,952.608582 548.988708,953.118469 
	C535.830505,953.591553 522.746704,954.645569 509.917267,957.790588 
	C507.091003,958.483337 505.593201,958.232666 505.916748,954.673218 
	C506.277374,950.705444 506.092560,946.688049 506.145142,942.224670 
z"/>
<path fill="#260C58" opacity="1.000000" stroke="none" 
	d="
M697.064514,341.098907 
	C677.944275,346.152679 662.209778,339.117554 647.956543,328.138489 
	C628.200378,312.920593 624.382019,291.285248 637.692139,269.683899 
	C648.509460,252.128403 660.083130,235.032516 671.591064,217.914078 
	C674.130432,214.136749 674.039612,212.392365 669.775757,210.350906 
	C665.084351,208.104797 664.532104,203.527939 667.780212,199.291183 
	C667.881409,199.159195 667.950134,198.999588 668.062195,198.879089 
	C671.119690,195.592300 673.671875,190.582703 677.378418,189.489777 
	C681.429626,188.295242 684.633362,193.740036 688.242676,196.189972 
	C698.442566,203.113449 708.604309,210.048889 720.302795,214.258148 
	C723.226257,215.310059 723.324646,216.369217 721.352417,218.640106 
	C718.080322,222.407608 714.939697,226.319595 712.085938,230.409485 
	C710.175598,233.147369 708.291809,233.760391 705.562195,231.860153 
	C701.156311,228.792953 698.254822,229.681870 695.169312,234.381805 
	C685.311584,249.397522 674.911682,264.056732 664.794556,278.903595 
	C663.592529,280.667572 662.735596,282.695068 661.902710,284.677765 
	C655.068359,300.946869 663.883057,316.362793 681.478821,318.954193 
	C690.146118,320.230682 696.461670,316.079773 700.968628,309.409851 
	C709.255188,297.146484 717.046875,284.548340 725.019958,272.073853 
	C728.065430,267.308868 730.897888,262.400330 734.106750,257.749969 
	C735.993347,255.015915 736.409302,253.137421 732.782043,251.819229 
	C731.862488,251.485046 731.058105,250.825378 730.212952,250.295975 
	C725.852051,247.564484 725.098572,242.806229 728.594482,238.844604 
	C731.669128,235.360382 734.486084,230.204132 738.296143,229.231750 
	C741.894104,228.313477 745.402100,233.693176 749.022461,236.191925 
	C759.572998,243.473709 770.213989,250.534470 783.161377,254.484726 
	C778.565002,260.298370 774.216614,265.738556 769.940735,271.235077 
	C768.155090,273.530457 766.630798,271.602722 765.163452,270.973175 
	C757.474548,267.674316 757.529541,267.655548 753.027283,274.495544 
	C742.324951,290.755157 731.706116,307.071838 720.809692,323.200684 
	C715.084106,331.675476 707.484070,338.009888 697.064514,341.098907 
z"/>
<path fill="#260D58" opacity="1.000000" stroke="none" 
	d="
M415.666565,922.533020 
	C418.994843,923.221863 421.946991,923.719055 424.877045,924.323242 
	C429.728943,925.323669 432.069275,929.154419 430.863922,934.009216 
	C427.335632,948.220093 427.340637,948.201843 413.293915,944.375854 
	C398.193909,940.262939 382.907379,937.105591 366.760712,935.660645 
	C369.297546,928.912598 371.781433,922.456726 374.140137,915.955444 
	C375.061523,913.415955 376.835388,913.878784 378.591553,914.484253 
	C383.172424,916.063599 385.715149,914.193909 388.245789,910.250427 
	C406.927734,881.138184 425.889435,852.205627 444.644379,823.139893 
	C446.244476,820.660095 447.960327,819.317566 450.910278,819.040283 
	C455.874634,818.573792 460.820801,817.853333 465.747070,817.067017 
	C468.390198,816.645081 469.614197,817.231750 469.910980,820.189392 
	C472.868744,849.663818 475.946136,879.126282 479.008057,908.590210 
	C479.678741,915.043884 480.576996,921.477722 481.085785,927.943115 
	C481.549377,933.833923 485.666229,935.484619 490.369202,936.746277 
	C494.643951,937.893066 496.900421,941.684570 495.931519,945.935913 
	C495.894745,946.097290 495.823608,946.250488 495.779114,946.410461 
	C491.974121,960.092102 491.923645,960.296509 478.259766,956.912170 
	C465.130981,953.660400 451.848145,951.643250 438.391998,950.558167 
	C432.661560,950.096069 430.303223,946.983032 431.168640,941.224976 
	C431.217407,940.900513 431.363708,940.590820 431.463470,940.273865 
	C432.660492,936.471252 432.876282,931.772217 435.314453,929.103699 
	C438.066254,926.091919 442.707550,929.415710 446.580566,929.178467 
	C449.222046,929.016663 451.384735,929.536255 451.055634,925.500305 
	C449.405975,905.270752 447.991394,885.022034 446.476105,864.781494 
	C446.440765,864.309753 446.192505,863.854065 445.803864,862.645508 
	C444.044098,865.406067 442.558167,867.700684 441.108032,870.017761 
	C431.494629,885.378052 421.744446,900.651489 412.683960,916.355652 
	C410.525085,920.097534 410.580750,922.017578 415.666565,922.533020 
z"/>
<path fill="#260C58" opacity="1.000000" stroke="none" 
	d="
M213.616074,686.504883 
	C212.570435,683.276062 215.309326,683.850037 216.464584,683.409851 
	C222.520447,681.102356 228.632446,678.932251 234.326584,675.805359 
	C239.825958,672.785400 241.142624,669.860535 239.575607,663.900391 
	C238.137024,658.428772 236.436966,653.017944 232.545898,648.660095 
	C225.734100,641.031128 216.617249,642.519592 212.955002,652.026001 
	C209.755875,660.330322 209.411835,669.246277 208.025818,677.929199 
	C206.793228,685.650940 205.390121,693.297485 202.342987,700.571350 
	C193.496689,721.688538 170.929810,724.555176 155.492920,717.060791 
	C139.065735,709.085693 130.817795,694.952148 126.267029,678.090820 
	C124.485420,671.489685 123.610359,664.719421 123.172363,657.904846 
	C122.847496,652.850159 125.182854,649.551697 130.045029,648.640869 
	C140.832764,646.620056 151.568115,644.416016 162.088928,641.245850 
	C163.142059,640.928528 164.291611,640.437439 165.423248,641.288269 
	C169.341415,644.233948 172.067261,657.090515 169.785538,661.369141 
	C169.010498,662.822510 167.912262,662.901245 166.545792,663.091614 
	C162.069138,663.715271 157.863739,665.271912 153.806732,667.225525 
	C151.501007,668.335815 150.016403,670.238892 150.341919,672.772827 
	C151.175705,679.262756 152.795837,685.563049 157.258469,690.634827 
	C163.560333,697.796936 171.249771,696.315430 174.451538,687.332092 
	C177.829407,677.854614 178.445831,667.833313 179.963364,657.993774 
	C181.079193,650.758789 182.679260,643.703064 185.478867,636.863770 
	C192.817596,618.935669 211.922821,614.828064 225.715042,618.695801 
	C244.499252,623.963501 254.585922,637.873047 260.915924,655.178955 
	C264.082855,663.837280 265.583801,672.854675 265.169373,682.121826 
	C264.814423,690.059204 262.365601,693.101868 254.628815,694.730164 
	C244.845871,696.789185 235.357590,699.829041 226.021683,703.309875 
	C223.159958,704.376953 221.951096,703.908813 220.762726,701.169373 
	C218.650116,696.299133 216.147095,691.598389 213.616074,686.504883 
z"/>
<path fill="#8678A1" opacity="1.000000" stroke="none" 
	d="
M541.736023,251.160019 
	C542.364624,252.964203 541.124756,254.437256 540.573792,256.372803 
	C539.477661,254.605438 539.962097,253.087341 540.665283,251.290421 
	C541.075806,251.106857 541.263672,251.202209 541.736023,251.160019 
z"/>
<path fill="#9689AE" opacity="1.000000" stroke="none" 
	d="
M762.979614,743.208252 
	C762.196228,743.074219 761.698181,742.830322 761.070801,742.334656 
	C761.258606,741.886292 761.575745,741.689697 761.979370,741.221741 
	C762.477478,741.305786 762.889099,741.661194 763.405762,742.277649 
	C763.428894,742.725281 763.346924,742.911865 762.979614,743.208252 
z"/>
<path fill="#755CA8" opacity="1.000000" stroke="none" 
	d="
M544.961548,724.961182 
	C544.867249,725.017639 544.793213,725.091553 544.872925,725.086792 
	C545.026611,725.008179 544.981873,724.978577 544.961548,724.961182 
z"/>
<path fill="#7157A4" opacity="1.000000" stroke="none" 
	d="
M797.967651,322.338196 
	C794.422241,321.999176 791.779358,324.272064 788.890198,325.793945 
	C769.152527,336.190826 749.481445,346.714233 729.789185,357.197540 
	C729.201172,357.510559 728.605530,357.811707 728.033447,358.152039 
	C722.659058,361.349152 722.145996,363.379211 725.388489,368.570862 
	C728.808655,374.047028 728.646240,374.242065 722.819946,376.233978 
	C720.882568,376.896332 720.136475,376.373627 719.324890,374.837433 
	C714.574341,365.845062 708.940491,357.432312 702.287659,349.696777 
	C705.982178,346.908173 709.153320,344.896454 713.238403,348.966675 
	C716.125366,351.843140 720.087402,351.280945 723.574158,349.623749 
	C732.895203,345.193756 742.194214,340.711975 751.413940,336.075623 
	C765.844299,328.819000 780.215515,321.444366 794.585510,314.068542 
	C803.049194,309.724396 804.302917,305.858002 800.526917,297.065613 
	C799.807983,295.391754 797.269348,293.361847 800.625732,291.661987 
	C803.410400,290.251648 805.383667,290.516693 807.099060,293.669220 
	C811.151855,301.117584 815.183105,308.634491 820.724426,315.130127 
	C823.193665,318.024628 820.475220,319.447601 819.243713,320.978851 
	C808.606018,334.206024 797.730957,347.242584 787.120605,360.491302 
	C779.632996,369.840698 772.423218,379.413574 765.161194,388.941345 
	C764.405640,389.932617 763.206177,390.828735 763.408997,392.812622 
	C770.684814,392.277924 777.610413,390.084473 784.592957,388.449432 
	C807.075562,383.184845 829.504028,377.683807 851.905457,372.082245 
	C855.351929,371.220428 857.163635,371.772614 858.878052,375.053894 
	C862.426270,381.845032 867.017700,388.005798 871.645813,394.117462 
	C872.524719,395.278076 874.842041,396.736877 872.944031,398.178070 
	C871.209106,399.495483 869.004272,401.223083 866.239380,399.061859 
	C855.733826,390.850189 855.385193,390.986389 844.587158,398.916016 
	C825.674500,412.804810 806.554565,426.414551 788.151001,440.984589 
	C786.329407,442.426758 784.646851,444.055756 782.981201,445.681458 
	C779.520142,449.059692 778.855896,452.674469 781.887512,456.804413 
	C782.707275,457.921234 785.427612,459.752197 782.039062,460.901367 
	C779.789734,461.664185 777.259460,464.966675 774.818298,460.890015 
	C769.773621,452.465637 764.788757,444.003479 758.364929,436.488922 
	C757.582275,435.573425 754.903320,434.056885 757.314209,432.577179 
	C759.315430,431.348907 761.315002,428.752869 764.425964,430.862854 
	C772.687317,436.466095 773.127747,436.408539 781.233398,430.238220 
	C800.167542,415.824829 819.091553,401.398163 838.037781,387.000702 
	C838.551025,386.610748 839.271423,386.493408 839.541077,385.783630 
	C834.790649,384.896423 830.766113,386.585785 826.688904,387.485809 
	C798.627991,393.680145 770.611572,400.076965 742.591675,406.455994 
	C740.270508,406.984436 737.846252,407.908844 736.180054,405.573212 
	C734.362061,403.024872 737.195007,401.724823 738.326538,400.253937 
	C757.808533,374.930481 777.392822,349.685791 796.944824,324.416229 
	C797.347046,323.896301 797.631348,323.285156 797.967651,322.338196 
z"/>
<path fill="#7157A4" opacity="1.000000" stroke="none" 
	d="
M865.137329,621.987427 
	C839.669006,619.963623 814.665283,617.952271 789.662903,615.925110 
	C786.352722,615.656738 783.046326,615.044800 779.743225,615.079102 
	C777.034241,615.107117 775.876831,613.901611 775.143494,611.576477 
	C774.363464,609.102966 776.092651,608.356750 777.684265,607.426636 
	C794.780029,597.436646 811.939941,587.554321 828.947876,577.416931 
	C844.096985,568.387390 859.091980,559.098511 874.107971,549.847839 
	C875.568176,548.948242 877.444763,548.392212 878.253113,546.521667 
	C870.914795,544.243408 863.377930,545.005432 856.014221,544.366028 
	C837.968872,542.799194 819.860474,541.916321 801.766174,540.973450 
	C793.621460,540.549011 793.108154,541.277344 792.947754,549.643372 
	C792.833679,555.595459 792.290588,555.823914 786.603577,554.231750 
	C784.146912,553.543884 783.888550,552.317200 784.136230,550.280273 
	C785.339233,540.386597 786.821228,530.500671 785.310303,520.499023 
	C785.078979,518.968323 785.366821,517.739624 787.257080,517.876770 
	C789.659851,518.051147 792.999023,517.323608 793.573975,520.514099 
	C795.216003,529.626038 801.786255,530.493652 809.195251,531.066895 
	C826.578857,532.411499 843.932678,534.139771 861.300415,535.691528 
	C869.076721,536.386292 876.847473,537.234985 884.640198,537.621643 
	C889.475708,537.861511 892.829407,535.195740 894.449707,530.614502 
	C895.111084,528.744385 895.703796,526.793030 895.913025,524.834351 
	C896.173340,522.398621 897.253662,521.384705 899.487488,522.336487 
	C901.187500,523.060791 904.194214,522.430237 903.571899,526.051697 
	C902.274109,533.604797 901.613342,541.232727 902.051880,548.898621 
	C902.200623,551.500305 900.526794,552.235962 898.775452,553.269531 
	C877.137146,566.039856 855.491211,578.798157 833.918030,591.677917 
	C825.272766,596.839417 816.801025,602.291565 806.990784,608.395020 
	C812.882141,608.956055 817.238159,609.527039 821.612183,609.759277 
	C837.056152,610.578979 852.507324,611.261963 867.953369,612.043701 
	C872.266785,612.262024 876.567871,612.788391 880.882141,612.914307 
	C888.346130,613.132202 889.721313,611.784119 890.775757,604.281494 
	C890.976501,602.853333 889.723877,599.836060 892.901672,600.626282 
	C895.352112,601.235657 899.520142,600.510071 898.960388,605.361328 
	C897.876221,614.757629 896.316589,624.132080 897.897217,633.643616 
	C898.116577,634.963501 898.497559,637.057007 896.140625,636.955750 
	C893.429504,636.839294 890.269592,637.161316 889.473267,633.312683 
	C888.332520,627.799744 885.646545,623.701782 879.516479,623.095276 
	C874.887451,622.637329 870.241089,622.355225 865.137329,621.987427 
z"/>
<path fill="#7257A5" opacity="1.000000" stroke="none" 
	d="
M777.443054,627.863342 
	C778.028564,626.642334 778.011963,624.695984 779.699585,626.125732 
	C781.564087,627.705383 785.041748,627.776367 784.803833,631.445251 
	C783.990906,643.982971 784.443481,644.873596 795.477173,650.191772 
	C818.406616,661.243530 841.329041,672.311890 864.353821,683.162354 
	C870.851013,686.224060 872.567383,685.219177 875.505310,678.792603 
	C876.169250,677.340454 876.009827,673.852173 879.147827,676.113708 
	C881.158569,677.562927 885.425598,677.968750 882.795349,682.535461 
	C875.641907,694.955505 870.427368,708.311646 864.407959,721.282288 
	C855.940186,739.528748 843.099243,753.072693 822.607971,757.303223 
	C806.867615,760.552917 792.619446,756.156738 779.592529,747.335999 
	C753.854370,729.908447 744.159485,695.556458 757.461975,668.841492 
	C759.680176,664.386536 762.422974,660.183472 765.055481,655.946045 
	C770.447876,647.266052 774.552856,638.033142 777.443054,627.863342 
z"/>
<path fill="#7157A4" opacity="1.000000" stroke="none" 
	d="
M762.439148,751.524414 
	C781.242493,766.293030 791.534363,784.939392 790.970825,808.896240 
	C790.405151,832.940674 771.928772,856.246155 748.653687,861.562927 
	C730.917725,865.614441 715.363037,859.989685 702.034607,848.393555 
	C685.414551,833.933655 677.092957,815.623108 677.949219,793.286804 
	C679.041748,764.787170 704.486389,739.288940 731.767700,740.106018 
	C742.998596,740.442444 753.186951,744.417114 762.439148,751.524414 
z"/>
<path fill="#7157A4" opacity="1.000000" stroke="none" 
	d="
M786.704224,478.885925 
	C790.620667,479.145264 794.045288,478.894501 797.498047,478.044556 
	C821.999084,472.013275 846.534912,466.123505 871.041870,460.115967 
	C878.981873,458.169586 879.868713,456.490417 877.881042,448.520630 
	C877.366821,446.458496 875.450867,443.784729 879.492615,443.174774 
	C882.518982,442.718018 885.265991,442.405548 886.040955,446.892029 
	C887.991272,458.182312 890.520813,469.356689 894.640381,480.113098 
	C895.086609,481.278015 897.354309,483.156830 894.384827,484.076233 
	C892.165771,484.763306 888.930542,486.597321 887.787964,483.493378 
	C884.086853,473.438599 876.759399,474.330902 868.577454,476.010986 
	C845.006287,480.851105 821.408081,485.556213 797.976562,491.048920 
	C797.007935,491.276001 796.058105,491.586487 795.105652,491.878326 
	C786.635315,494.473541 785.403870,496.848999 788.056274,505.471130 
	C788.202820,505.947388 788.585144,506.459961 788.497375,506.880463 
	C788.146240,508.562714 791.911499,511.239471 787.823608,511.807709 
	C785.013000,512.198425 781.016663,513.799988 780.040039,508.446198 
	C777.774414,496.026062 775.234558,483.657684 770.032837,472.028046 
	C769.571594,470.996857 768.195862,469.434143 770.495605,468.904541 
	C773.071838,468.311249 775.968262,466.435486 777.999756,469.997284 
	C780.055176,473.601044 781.802612,477.501465 786.704224,478.885925 
z"/>
<path fill="#9689AE" opacity="1.000000" stroke="none" 
	d="
M776.208069,753.588867 
	C776.699036,753.852356 776.959045,754.157471 777.218994,754.462585 
	C776.873108,754.521973 776.527161,754.581360 776.039185,754.366821 
	C775.897034,754.092957 775.977112,753.630432 776.208069,753.588867 
z"/>
<path fill="#9689AE" opacity="1.000000" stroke="none" 
	d="
M776.035889,753.959839 
	C775.722473,753.820862 775.547913,753.548706 775.373352,753.276611 
	C775.607300,753.251099 775.841248,753.225647 776.257080,753.373657 
	C776.439026,753.547241 776.174683,753.826660 776.035889,753.959839 
z"/>
<path fill="#9689AE" opacity="1.000000" stroke="none" 
	d="
M765.323608,744.450562 
	C765.408997,744.402588 765.462585,744.587830 765.462585,744.587830 
	C765.462585,744.587830 765.238220,744.498535 765.323608,744.450562 
z"/>
<path fill="#9689AE" opacity="1.000000" stroke="none" 
	d="
M763.303101,742.729797 
	C763.671753,742.924927 763.832703,743.311096 763.993652,743.697266 
	C763.696655,743.724304 763.399719,743.751343 762.898499,743.548218 
	C762.827942,743.185669 762.961609,743.053223 763.303101,742.729797 
z"/>
<path fill="#7157A4" opacity="1.000000" stroke="none" 
	d="
M370.581177,301.269287 
	C371.058289,295.883026 368.861389,291.527954 367.070648,287.072601 
	C358.449280,265.622772 349.822754,244.175018 341.172180,222.736969 
	C340.363342,220.732468 339.459290,218.755722 338.450867,216.844482 
	C335.830353,211.877792 334.074310,211.381561 328.820831,213.547226 
	C326.967255,214.311356 324.525208,216.946609 323.199738,213.037537 
	C322.231781,210.182816 320.976074,207.483551 325.839630,205.910461 
	C337.707428,202.071899 349.052307,196.818253 360.450531,191.732971 
	C371.572266,186.771072 383.128082,184.305023 394.571777,190.394928 
	C407.584167,197.319626 412.054016,214.790054 405.351746,230.415634 
	C403.233734,235.353577 400.473663,239.911865 396.769318,243.794434 
	C394.914520,245.738464 394.974762,247.010330 397.131653,248.530457 
	C408.283020,256.389679 419.477417,264.191650 430.498322,272.230804 
	C438.782318,278.273529 447.727325,275.933136 456.439911,274.409546 
	C461.383881,273.545013 464.092712,268.520172 463.749237,261.595520 
	C462.744720,241.344208 461.435760,221.107574 460.174500,200.869675 
	C459.760803,194.232300 460.258759,187.567947 459.117676,180.942078 
	C458.012207,174.522736 457.481659,173.546188 450.781433,174.080215 
	C446.055634,174.456879 445.511169,172.425842 445.948486,168.607574 
	C446.203827,166.378036 447.283936,165.948761 449.204651,165.855820 
	C460.828186,165.293533 472.444000,164.563065 484.069641,164.054306 
	C497.027954,163.487228 509.927673,162.412964 522.711609,160.175369 
	C525.939331,159.610413 527.052917,160.042969 526.436951,163.971161 
	C525.230286,171.667252 524.592712,179.491241 524.337524,187.282516 
	C524.197327,191.562729 521.532227,191.580658 518.778992,191.921265 
	C515.038879,192.383972 515.979492,189.485123 515.966125,187.548126 
	C515.946411,184.700897 515.649109,181.927902 515.034241,179.144409 
	C514.288757,175.769531 512.076111,173.703720 508.967682,173.266083 
	C498.702057,171.820801 488.442047,172.691132 478.208069,173.969833 
	C475.088104,174.359634 474.428162,176.869507 474.435760,179.068619 
	C474.476532,190.879318 474.812012,202.688934 475.035461,214.499130 
	C475.075989,216.641098 476.382355,216.796783 478.087982,216.643433 
	C489.487274,215.618591 501.021179,215.967819 512.244202,213.134125 
	C515.410889,212.334534 517.179016,212.682861 516.223511,217.019516 
	C514.695496,223.954773 515.033203,223.935547 507.923798,224.147919 
	C498.623566,224.425766 489.322662,224.738708 480.085480,226.048218 
	C476.691711,226.529327 474.490540,227.576538 475.143219,231.703415 
	C476.916260,242.914307 475.276001,254.311890 476.892426,265.565094 
	C477.490479,269.728241 479.317963,272.083313 483.456482,272.244659 
	C494.440735,272.672974 505.423767,272.301849 515.902283,268.700562 
	C522.376160,266.475616 524.275391,260.597443 525.005310,254.361526 
	C525.419556,250.822739 525.702332,247.383133 530.520935,247.052811 
	C533.082825,246.877213 534.411072,247.440277 533.923523,250.247955 
	C532.415527,258.932465 531.696777,267.705078 531.077271,276.484558 
	C530.947144,278.327759 530.175354,279.191406 528.363342,279.321594 
	C526.377747,279.464203 524.399902,279.885620 522.418274,279.888184 
	C503.441589,279.912628 484.464783,280.353882 465.585571,282.207336 
	C457.312592,283.019562 448.773712,283.137238 441.227386,288.132782 
	C437.289520,290.739624 432.545166,288.993073 428.274780,287.248383 
	C420.081543,283.900940 413.938812,277.646179 407.099884,272.398987 
	C401.162231,267.843353 395.298798,263.159393 389.727234,258.169647 
	C386.309662,255.108948 383.151337,253.991318 379.017212,256.494141 
	C377.330292,257.515381 375.367889,258.098175 373.501007,258.801208 
	C371.434357,259.579468 370.653809,260.675415 371.583344,262.989532 
	C375.178406,271.939423 378.410950,281.039856 382.184692,289.911438 
	C385.195465,296.989319 387.691772,297.880249 395.117065,295.785034 
	C396.585022,295.370758 398.723541,293.889038 398.865112,296.757050 
	C398.974457,298.971985 402.060883,302.071503 397.805908,303.536346 
	C386.942932,307.275970 376.363251,311.711884 365.837555,316.288849 
	C364.570770,316.839691 362.950745,317.540497 362.515259,315.749481 
	C361.932373,313.352295 360.540100,310.673553 363.477448,308.522583 
	C366.119873,306.587646 369.319824,305.135590 370.581177,301.269287 
z"/>
<path fill="#7157A4" opacity="1.000000" stroke="none" 
	d="
M596.162842,182.156021 
	C583.984009,184.196579 579.330750,187.864456 577.784973,196.449905 
	C576.712830,202.404755 579.612000,207.016922 583.025146,211.442627 
	C589.075073,219.287292 596.831238,225.380890 604.098572,231.968628 
	C609.054138,236.460739 613.813293,241.107056 617.086487,247.007248 
	C624.318848,260.044220 621.076721,274.384583 608.878052,283.063019 
	C598.038452,290.774567 585.855408,292.163086 573.148010,289.832825 
	C563.075073,287.985748 553.681091,284.328003 545.219910,278.323456 
	C542.088013,276.100830 541.228394,273.986542 542.709656,270.369537 
	C545.734802,262.982574 548.413452,255.436676 550.145386,247.633011 
	C550.992859,243.814148 553.287476,243.558701 556.348755,244.053711 
	C560.320740,244.696030 558.540344,247.223831 558.202942,249.383530 
	C557.434998,254.299210 556.026184,259.134552 556.104858,264.159973 
	C556.201843,270.356537 558.804626,275.141327 564.581482,277.723297 
	C572.703796,281.353577 581.011230,284.140778 590.134277,281.963776 
	C603.173340,278.852417 608.659546,265.775513 601.521667,254.425980 
	C597.211182,247.572006 590.921631,242.511856 585.028137,237.127396 
	C579.372192,231.959930 573.774841,226.774292 568.954102,220.761322 
	C554.551880,202.797195 565.262817,183.779907 581.261902,177.099976 
	C596.459534,170.754700 611.322815,173.695709 625.785400,179.944260 
	C638.728943,185.536499 638.646057,185.640869 633.468018,198.443954 
	C631.535645,203.221741 629.519226,207.994415 628.048340,212.920868 
	C626.838928,216.971725 624.017273,216.357910 621.317261,215.823746 
	C617.483826,215.065323 619.904846,212.472397 620.251770,210.707138 
	C620.858643,207.619125 621.925598,204.622101 622.544983,201.535828 
	C623.735718,195.603088 621.393066,190.570282 616.104675,187.676208 
	C610.035706,184.354950 603.481873,182.628632 596.162842,182.156021 
z"/>
<path fill="#7258A5" opacity="1.000000" stroke="none" 
	d="
M306.424896,783.294678 
	C290.860840,815.007202 255.179398,830.251892 223.622040,818.330750 
	C192.345139,806.515503 172.223923,766.383301 203.270050,732.407471 
	C217.435898,716.904846 235.368118,709.246826 256.707458,709.957153 
	C285.759155,710.924194 311.494690,736.649658 310.943848,764.637756 
	C310.818512,771.005676 309.178650,777.118835 306.424896,783.294678 
z"/>
<path fill="#7157A4" opacity="1.000000" stroke="none" 
	d="
M368.685638,851.643188 
	C360.346313,865.697998 352.142731,879.408020 344.068176,893.193481 
	C339.488525,901.012085 339.874969,902.193665 347.592560,906.856812 
	C348.813812,907.594604 351.023041,908.391846 349.268555,909.979248 
	C347.581512,911.505554 347.159271,916.388550 343.744995,914.071899 
	C329.681549,904.529480 313.688416,898.200195 300.159027,887.866211 
	C291.362244,881.147034 285.590546,872.252136 287.404388,860.801819 
	C289.395844,848.230164 297.524170,840.235413 309.421448,835.928833 
	C315.523376,833.720154 321.815521,833.653503 328.149445,833.812134 
	C330.309998,833.866272 332.081970,833.927368 332.035400,830.861023 
	C331.810516,816.058105 331.565094,801.252563 329.953583,786.525574 
	C329.332458,780.848938 326.608612,776.141907 321.738190,772.827393 
	C320.490784,771.978333 318.369751,771.257385 319.962006,769.047180 
	C321.197510,767.332214 322.169067,765.510315 325.103516,766.290283 
	C339.709808,770.173096 344.910187,776.670776 345.083893,791.901917 
	C345.232056,804.890320 345.074127,817.888367 343.999176,830.826660 
	C343.573730,835.947388 345.901794,838.259216 349.896057,840.382446 
	C357.562714,844.457703 357.491852,844.600159 361.900238,837.197144 
	C366.071014,830.193237 370.440613,823.296997 374.333740,816.141724 
	C377.524475,810.277466 376.656464,808.074829 371.443665,803.787964 
	C370.312164,802.857483 366.680481,802.514282 369.122406,799.613403 
	C370.930511,797.465637 372.478729,794.487610 376.374573,797.108826 
	C385.213531,803.056091 394.376617,808.493408 403.811707,813.465759 
	C405.077240,814.132629 407.826660,814.489380 406.549713,816.658813 
	C405.426849,818.566528 404.389374,821.421936 401.123993,820.994141 
	C400.959412,820.972534 400.799316,820.919128 400.635559,820.888855 
	C388.106232,818.566040 387.956451,818.696838 381.579803,829.841309 
	C377.447723,837.062927 373.117096,844.171021 368.685638,851.643188 
z"/>
<path fill="#7157A4" opacity="1.000000" stroke="none" 
	d="
M622.911072,815.483398 
	C615.989563,820.376648 614.660522,823.525696 616.954163,830.954651 
	C624.848999,856.525452 632.829590,882.070190 640.887634,907.590027 
	C643.056885,914.460083 645.045166,915.285400 652.059448,913.112366 
	C653.850586,912.557495 656.118347,911.056335 656.631897,914.392578 
	C657.026672,916.957092 658.502380,919.944275 654.060791,921.103943 
	C643.603027,923.834595 633.272827,927.010193 623.372070,931.447510 
	C622.125244,932.006348 619.982300,934.028320 619.441406,931.245972 
	C619.045227,929.207581 616.401306,926.286621 619.734985,924.643066 
	C626.613342,921.251892 627.186584,916.438660 625.450378,909.376953 
	C619.455688,884.994446 612.520386,860.897705 605.048279,836.942749 
	C604.406006,834.883850 603.759521,832.773132 602.727112,830.900269 
	C600.676270,827.179932 597.652344,825.444092 593.175781,826.531738 
	C587.009949,828.030029 581.012268,829.990784 575.251770,832.604370 
	C566.314453,836.659424 563.340576,844.477966 565.541870,857.778015 
	C565.906860,859.983398 566.416931,861.861694 563.710266,863.219360 
	C559.024414,865.569885 558.388916,865.467529 557.500183,860.315857 
	C555.948669,851.322021 554.557312,842.300598 553.054199,833.298157 
	C552.535095,830.189026 553.334961,828.656738 556.807861,827.725098 
	C576.538513,822.432251 596.496460,817.842896 615.449524,809.971252 
	C616.063782,809.716125 616.655701,809.359558 617.295044,809.221069 
	C619.284119,808.790222 621.309875,805.890076 623.045410,807.847046 
	C624.700134,809.712891 624.968262,812.726624 622.911072,815.483398 
z"/>
<path fill="#7157A4" opacity="1.000000" stroke="none" 
	d="
M552.726074,946.031372 
	C540.445129,946.195923 528.703369,947.123169 517.032776,949.028198 
	C515.829163,949.224609 513.424072,951.331299 513.194641,948.214417 
	C513.021729,945.864746 511.634735,942.672607 515.326782,941.384583 
	C516.576416,940.948608 517.885681,940.687134 519.153198,940.298584 
	C523.562378,938.946838 525.852905,935.676575 525.763611,931.340942 
	C525.434814,915.381470 524.841003,899.426819 524.268799,883.473206 
	C523.923035,873.835999 523.443970,864.203552 523.001099,854.570007 
	C522.879333,851.920349 522.963562,849.282104 522.305298,846.638733 
	C520.771423,840.478394 518.129150,838.573547 512.000488,839.591614 
	C511.018066,839.754822 509.984192,840.108521 509.048523,839.945923 
	C507.273865,839.637573 503.987366,841.709106 504.233185,837.881897 
	C504.395203,835.358765 503.736694,831.974854 508.605133,831.646301 
	C521.497864,830.776428 534.567200,831.207947 547.152649,827.435364 
	C548.069824,827.160522 549.763855,826.854980 549.507141,828.040710 
	C548.947083,830.627075 550.652527,834.797852 547.319763,835.589417 
	C535.706116,838.347656 535.268860,846.599854 535.956970,856.055908 
	C537.777832,881.077393 539.321228,906.118835 541.069885,931.145813 
	C541.484802,937.084656 543.250549,938.047607 551.742310,937.946411 
	C553.371582,937.927002 555.986938,936.918152 555.885620,939.864685 
	C555.809998,942.064575 557.696228,945.598022 552.726074,946.031372 
z"/>
<path fill="#7157A4" opacity="1.000000" stroke="none" 
	d="
M703.043213,318.052002 
	C717.379761,298.989075 729.012390,278.585785 741.458191,258.716278 
	C745.520752,252.230530 744.749634,251.028748 737.791992,246.506485 
	C736.450073,245.634338 732.536072,245.671463 735.100220,242.277512 
	C737.003479,239.758408 738.412292,236.581650 742.785461,240.034424 
	C750.611938,246.213760 758.960693,251.733383 768.034729,256.046661 
	C769.217896,256.609070 772.094666,256.852173 770.227600,259.264313 
	C768.914307,260.960907 768.536743,264.478882 764.899292,263.145020 
	C763.963257,262.801758 763.039734,262.424255 762.109436,262.065094 
	C756.350281,259.841370 754.129089,260.428680 750.713135,265.566406 
	C739.195251,282.889496 727.728455,300.246674 716.287354,317.620575 
	C709.849670,327.396515 701.344727,334.141663 689.459961,335.664551 
	C679.087769,336.993591 669.686157,333.645813 660.947327,328.510162 
	C649.476440,321.768921 639.657043,313.521973 637.461975,299.237183 
	C635.935181,289.301544 638.945557,280.412506 644.178894,272.271698 
	C655.607056,254.494629 667.395996,236.949646 678.847229,219.187180 
	C683.586731,211.835739 683.038330,210.428619 675.618225,205.822342 
	C674.532532,205.148361 672.052002,204.596664 674.044373,202.767471 
	C675.825256,201.132507 676.853943,196.704773 680.357422,199.084976 
	C689.992126,205.630600 699.329224,212.611206 709.985901,217.507843 
	C710.971375,217.960663 712.662476,218.716339 711.273987,219.940903 
	C709.505493,221.500565 709.304810,225.221558 705.532288,224.247421 
	C695.964050,221.776749 695.631958,221.931091 690.002625,229.994385 
	C680.287781,243.909592 670.570068,257.822845 660.870300,271.748566 
	C656.231628,278.408234 652.972778,285.708405 652.168823,293.798798 
	C650.900208,306.564850 659.398621,318.344391 673.295593,323.854034 
	C684.321716,328.225464 694.140564,326.428223 703.043213,318.052002 
z"/>
<path fill="#7157A4" opacity="1.000000" stroke="none" 
	d="
M431.758911,855.780029 
	C437.604218,846.839417 443.230530,838.187805 448.879425,829.550964 
	C450.576477,826.956177 458.820129,824.086304 461.608765,825.034546 
	C463.970215,825.837463 463.468384,828.121338 463.665955,829.679321 
	C464.627045,837.256470 465.198547,844.881958 466.013367,852.479004 
	C468.244537,873.281372 470.534698,894.077393 472.787354,914.877502 
	C473.341888,919.997620 473.763367,925.133301 474.387634,930.244568 
	C475.190460,936.817749 479.387146,940.450134 485.313110,942.563171 
	C486.983093,943.158691 489.821472,943.034424 488.350403,946.271118 
	C487.256165,948.678650 487.138794,952.066162 482.829163,950.899597 
	C471.753357,947.901672 460.534515,945.601746 449.078186,944.606934 
	C447.093933,944.434631 445.092072,944.327576 443.139587,943.967102 
	C441.320343,943.631287 438.030762,945.062195 438.523865,941.362671 
	C438.895844,938.571594 439.388123,935.152161 443.921997,935.903809 
	C446.034912,936.254150 448.245300,936.076660 450.409973,936.042053 
	C455.805023,935.955872 458.112671,933.932312 457.881378,928.417542 
	C457.331085,915.296631 456.530731,902.183228 455.619354,889.081543 
	C454.916412,878.976013 453.885132,868.893494 453.012238,858.799622 
	C452.654419,854.661743 452.342072,850.519897 451.980286,846.382446 
	C451.884430,845.286133 452.313599,843.716736 450.801880,843.464417 
	C449.507721,843.248291 448.911407,844.656555 448.299744,845.612915 
	C443.008972,853.885071 437.638580,862.109131 432.504425,870.477966 
	C423.889740,884.520020 415.422180,898.652466 406.919952,912.763306 
	C405.976868,914.328491 405.087128,915.948975 404.386841,917.632874 
	C402.392212,922.428711 403.632263,925.793030 408.502167,927.564575 
	C412.385162,928.977234 416.499939,929.757324 420.519958,930.786438 
	C422.137238,931.200500 424.956207,930.780518 423.470886,933.722107 
	C422.456543,935.730835 423.412354,939.980469 418.402374,938.540833 
	C408.666809,935.743530 398.823029,933.298950 388.820068,931.583801 
	C386.202271,931.135010 383.571686,930.726624 380.988983,930.120667 
	C379.600067,929.794922 376.795563,930.824463 377.303619,928.247925 
	C377.753113,925.968689 377.785309,921.845947 381.112091,922.164368 
	C388.485626,922.870117 391.366028,918.048157 394.590881,913.047913 
	C406.859955,894.024475 419.221497,875.060730 431.758911,855.780029 
z"/>
<path fill="#7157A4" opacity="1.000000" stroke="none" 
	d="
M244.908600,657.232300 
	C242.831894,650.699097 239.689240,645.341675 234.691666,641.096436 
	C226.084595,633.784912 213.067780,636.230408 207.908173,646.226135 
	C202.971344,655.790100 202.885208,666.448730 201.096405,676.713501 
	C199.955612,683.259766 199.138550,689.863647 196.639893,696.088562 
	C190.223679,712.073303 174.867294,718.240112 159.052856,711.046265 
	C144.288940,704.330322 137.186737,691.624817 133.191818,676.813354 
	C131.685898,671.230042 131.111923,665.391785 130.179504,659.658936 
	C129.743317,656.977051 130.487015,655.471313 133.653473,654.905334 
	C141.819824,653.445740 150.003342,651.865967 157.970703,649.598755 
	C162.037766,648.441345 162.563416,650.851807 163.574997,653.210571 
	C164.977173,656.480286 162.414124,656.582214 160.300827,657.245178 
	C156.501358,658.437134 152.728470,659.698364 149.283569,661.833069 
	C145.913055,663.921692 144.079361,666.902039 143.382217,670.675354 
	C141.864914,678.887817 149.386612,694.992004 156.732086,699.339783 
	C166.740189,705.263428 177.172592,701.312012 181.015106,690.030273 
	C184.466644,679.896423 185.378494,669.261108 186.969238,658.760193 
	C187.864227,652.852051 188.994308,647.030701 191.082047,641.347412 
	C196.679703,626.109497 211.339081,621.952271 224.429367,625.591980 
	C239.868469,629.884644 248.016739,641.601318 253.652084,655.495483 
	C257.127014,664.062988 258.506134,673.068054 258.183716,682.365356 
	C258.079010,685.384888 257.071991,686.985962 254.139206,687.606262 
	C245.832153,689.363098 237.670135,691.680054 229.728485,694.672668 
	C225.858719,696.130859 224.733734,693.784241 223.536682,691.019470 
	C221.953064,687.361633 225.367569,687.812317 226.925018,687.007507 
	C230.614960,685.100769 234.585556,683.715210 238.196243,681.681396 
	C246.382385,677.070251 248.506470,671.741394 246.273468,662.439636 
	C245.885757,660.824646 245.434250,659.224915 244.908600,657.232300 
z"/>
<path fill="#250C58" opacity="1.000000" stroke="none" 
	d="
M797.979736,321.976746 
	C798.085022,321.893402 798.099670,321.023102 798.187195,321.966614 
	C798.028870,322.023529 797.994873,321.993652 797.979736,321.976746 
z"/>
<path fill="#250B57" opacity="1.000000" stroke="none" 
	d="
M842.535767,732.589844 
	C824.228699,746.410583 805.911377,743.612732 787.584717,733.623474 
	C778.270447,728.546631 770.149109,722.076050 764.826416,712.584595 
	C756.359009,697.485107 759.344604,683.162659 767.594543,669.155273 
	C768.016235,668.439331 768.495850,667.757263 768.951111,667.061157 
	C774.575317,658.461548 779.398560,656.915955 788.720642,661.548584 
	C802.567810,668.429932 816.260010,675.624756 829.982483,682.754822 
	C839.572571,687.737793 849.014709,693.014343 858.701111,697.799011 
	C862.918823,699.882446 863.917542,702.238708 861.867798,706.454285 
	C857.091858,716.276245 851.341797,725.330078 842.535767,732.589844 
z"/>
<path fill="#260C58" opacity="1.000000" stroke="none" 
	d="
M718.927307,754.943481 
	C729.574097,753.216980 738.918518,756.157043 747.407410,761.310242 
	C763.881348,771.310852 776.407227,784.591125 780.200623,804.377014 
	C783.837219,823.344971 770.797913,842.377686 751.782837,845.980042 
	C735.305664,849.101562 721.629944,842.851562 709.574829,832.651611 
	C698.453369,823.241821 690.191711,811.831543 687.726807,796.814331 
	C684.494568,777.122620 698.426392,757.880493 718.927307,754.943481 
z"/>
<path fill="#250B57" opacity="1.000000" stroke="none" 
	d="
M351.426025,204.520233 
	C359.001251,199.516464 367.284546,197.361588 375.780853,198.405167 
	C391.121674,200.289444 399.656708,217.704056 394.164734,232.880051 
	C389.779449,244.997864 379.498749,247.097290 369.251068,249.867889 
	C367.413818,250.364624 366.488403,249.205368 365.927368,247.651001 
	C360.807648,233.466782 354.995819,219.519684 351.426025,204.520233 
z"/>
<path fill="#250C57" opacity="1.000000" stroke="none" 
	d="
M267.708984,802.745728 
	C256.976898,809.391602 245.897949,813.918457 233.409271,811.469116 
	C210.931854,807.060730 197.911285,784.705933 205.512344,762.789185 
	C212.797775,741.782471 227.779800,727.739380 248.963898,721.430359 
	C264.153687,716.906555 278.103668,720.430969 288.529694,733.215942 
	C298.736176,745.731750 299.334167,759.576538 292.951477,773.962646 
	C287.598419,786.028198 278.722656,795.107666 267.708984,802.745728 
z"/>
<path fill="#260C58" opacity="1.000000" stroke="none" 
	d="
M349.800171,856.654663 
	C342.831818,867.419312 336.118134,877.908142 329.300415,888.328918 
	C324.971863,894.944946 324.836578,894.893066 318.179199,890.470276 
	C315.117218,888.436096 312.366730,886.058533 309.787781,883.449524 
	C297.609436,871.128967 301.126678,851.424500 317.054840,844.157288 
	C325.777466,840.177612 334.566101,838.832825 342.539642,846.301208 
	C344.463989,848.103638 346.722656,849.589539 348.967163,850.998718 
	C351.350861,852.495361 351.645782,854.179016 349.800171,856.654663 
z"/>
<path fill="#FDFDFE" opacity="1.000000" stroke="none" 
	d="
M832.614075,730.795532 
	C823.206726,735.439819 813.832520,736.265930 804.219238,733.048157 
	C790.531067,728.466309 778.377747,721.717896 770.805481,708.712158 
	C763.977783,696.985291 767.215332,676.777466 777.208984,667.567810 
	C779.813538,665.167603 782.230408,666.243347 784.540100,667.382812 
	C794.059204,672.078857 803.516052,676.903748 812.940735,681.787659 
	C825.906311,688.506409 838.784790,695.394104 851.788757,702.036926 
	C854.543274,703.444031 855.379456,704.404541 853.625854,707.513428 
	C848.401428,716.775452 842.315613,725.127991 832.614075,730.795532 
z"/>
<path fill="#FEFDFE" opacity="1.000000" stroke="none" 
	d="
M696.513794,803.211121 
	C688.214844,779.300110 705.743896,762.850830 720.716675,761.633972 
	C728.945557,760.965271 736.561157,762.960205 743.607849,767.091125 
	C756.302795,774.533325 766.265564,784.579468 771.466064,798.546997 
	C775.620239,809.704102 774.927246,820.492554 766.406006,829.688599 
	C757.661621,839.125549 746.747498,842.030457 734.600891,838.396973 
	C716.465088,832.971985 704.043823,820.933899 696.513794,803.211121 
z"/>
<path fill="#FBFAFC" opacity="1.000000" stroke="none" 
	d="
M367.760315,205.738770 
	C377.833740,204.186630 383.434814,206.924820 386.893097,214.786041 
	C390.358429,222.663300 388.460114,233.556198 382.503632,238.146332 
	C379.579834,240.399429 375.678314,240.527710 372.234406,241.648468 
	C370.663788,242.159592 370.553558,240.311310 370.217072,239.382446 
	C366.775757,229.882828 363.469208,220.334351 360.020752,210.837402 
	C359.220062,208.632416 359.579102,207.422989 362.010345,207.008957 
	C363.801422,206.703934 365.564667,206.235321 367.760315,205.738770 
z"/>
<path fill="#FEFEFE" opacity="1.000000" stroke="none" 
	d="
M247.377533,729.080078 
	C270.175140,721.691528 290.704620,735.480286 289.952393,757.431274 
	C289.701904,764.740601 287.230927,771.466919 283.103577,777.473022 
	C274.066681,790.623718 262.662933,800.744629 246.580215,804.172485 
	C224.076721,808.968933 205.404663,789.068726 211.724426,766.822144 
	C216.965775,748.371765 229.939636,736.768005 247.377533,729.080078 
z"/>
<path fill="#FCFCFD" opacity="1.000000" stroke="none" 
	d="
M309.313599,866.088745 
	C310.990356,858.042419 314.888123,852.514526 322.465973,849.511719 
	C329.874695,846.575867 335.582062,848.927673 340.990875,853.809387 
	C342.072144,854.785339 342.351379,855.508057 341.564850,856.712463 
	C335.764954,865.593506 329.933105,874.454529 324.236298,883.401428 
	C322.976624,885.379761 321.862122,884.622131 320.650452,883.703735 
	C314.854645,879.310608 309.738068,874.446167 309.313599,866.088745 
z"/>
</svg>